<svg width="24" height="24" viewBox="0 0 24 24" fill="none" xmlns="http://www.w3.org/2000/svg">
<path fill-rule="evenodd" clip-rule="evenodd" d="M5.63604 18.364C9.15076 21.8787 14.8492 21.8787 18.364 18.364C21.8787 14.8492 21.8787 9.15076 18.364 5.63604C14.8492 2.12132 9.15076 2.12132 5.63604 5.63604C2.12132 9.15076 2.12132 14.8492 5.63604 18.364ZM7.55025 11C6.99797 11 6.55025 11.4477 6.55025 12C6.55025 12.5523 6.99797 13 7.55025 13H11L11 16.4497C11 17.002 11.4477 17.4497 12 17.4497C12.5523 17.4497 13 17.002 13 16.4497V13H16.4497C17.002 13 17.4497 12.5523 17.4497 12C17.4497 11.4477 17.002 11 16.4497 11H13L13 7.55025C13 6.99797 12.5523 6.55025 12 6.55025C11.4477 6.55025 11 6.99797 11 7.55025L11 11H7.55025Z" fill="black"/>
</svg>
